<svg width="20" height="20" fill="none" xmlns="http://www.w3.org/2000/svg"><path d="M9.05 1.085a7.549 7.549 0 0 0-3.674 1.588 7.418 7.418 0 0 0-2.491 3.994c-.231.97-.25 2.191-.05 3.222a5.886 5.886 0 0 0 1.093 2.394c.084.11 1.402 1.642 2.928 3.405 2.052 2.369 2.808 3.219 2.898 3.262a.593.593 0 0 0 .58-.07c.161-.119 5.577-6.367 5.836-6.733.807-1.141 1.13-2.226 1.13-3.794a7 7 0 0 0-.749-3.236 7.21 7.21 0 0 0-1.937-2.452 7.62 7.62 0 0 0-2.947-1.446c-.763-.182-1.847-.238-2.617-.134m1.733 1.285c2.217.28 4.131 1.826 4.884 3.947.28.788.385 1.582.33 2.506-.065 1.114-.333 1.866-.958 2.689-.228.3-5.006 5.805-5.039 5.805-.033 0-4.817-5.513-5.038-5.805-.635-.843-.889-1.549-.958-2.664-.046-.734.005-1.36.161-1.981.741-2.956 3.575-4.881 6.618-4.497m-1.38 2.88c-.572.129-.982.324-1.412.672-.38.307-.759.834-.919 1.278-.173.478-.187.564-.188 1.133-.001.545 0 .554.123.934.329 1.017 1.043 1.73 2.06 2.059.379.123.389.124.933.124s.554-.001.933-.124c1.037-.335 1.774-1.091 2.09-2.143.082-.273.09-.348.09-.85 0-.501-.008-.576-.09-.85-.323-1.073-1.11-1.859-2.173-2.17-.376-.11-1.1-.142-1.447-.063m1.13 1.305c.537.148 1.062.662 1.238 1.212.096.302.096.831 0 1.133a1.959 1.959 0 0 1-1.254 1.219c-.287.083-.798.075-1.089-.016-.534-.169-1.029-.665-1.199-1.203-.096-.302-.096-.831 0-1.133.206-.652.822-1.176 1.488-1.266.247-.034.575-.012.816.054" fill-rule="evenodd" fill="#000"/></svg>